<svg width="170" height="50" viewBox="0 0 170 50" fill="none" xmlns="http://www.w3.org/2000/svg">
<g clip-path="url(#clip0)">
<path d="M46.7553 45.4667L43.9901 16.7167C43.7824 14.551 41.8379 12.9167 39.4677 12.9167C38.9232 12.9167 38.4802 13.3229 38.4802 13.8229V18.3052C38.4802 18.7489 38.1147 19.1364 37.6322 19.1646C37.1033 19.1958 36.6639 18.8114 36.6639 18.3333V8.64582C36.6639 3.87811 32.4377 -1.52588e-05 27.2422 -1.52588e-05C22.0466 -1.52588e-05 17.8205 3.87811 17.8205 8.64582V12.9167H15.0166C12.6464 12.9167 10.7019 14.551 10.4942 16.7167L7.72894 45.4667C7.49624 47.8963 9.58411 50 12.2525 50H42.2318C44.9006 50 46.9881 47.896 46.7553 45.4667ZM22.0204 44.4791H15.4367C14.935 44.4791 14.5285 44.106 14.5285 43.6458C14.5285 43.1856 14.935 42.8125 15.4367 42.8125H22.0204C22.5219 42.8125 22.9286 43.1856 22.9286 43.6458C22.9286 44.106 22.5219 44.4791 22.0204 44.4791ZM22.0204 40.3125H15.4367C14.935 40.3125 14.5285 39.9394 14.5285 39.4791C14.5285 39.0189 14.935 38.6458 15.4367 38.6458H22.0204C22.5219 38.6458 22.9286 39.0189 22.9286 39.4791C22.9286 39.9394 22.5219 40.3125 22.0204 40.3125ZM34.8477 12.9167H22.4404C21.8956 12.9167 21.4529 13.3229 21.4529 13.8229V18.3052C21.4529 18.7489 21.0874 19.1364 20.605 19.1646C20.0759 19.1958 19.6366 18.8114 19.6366 18.3333V8.64582C19.6366 4.7979 23.0489 1.66665 27.2422 1.66665C31.4354 1.66665 34.8477 4.7979 34.8477 8.64582V12.9167Z" fill="#44D62D"/>
<path d="M62.384 37H66.556L71.12 23.784L75.656 37H79.8L85.624 17.764H81.144L77.588 30.672L73.332 17.764H68.852L64.596 30.672L61.04 17.764H56.56L62.384 37ZM94.4475 22.188C92.4315 22.188 90.4435 22.748 88.3995 23.784L89.7715 26.5C90.9195 25.912 92.1795 25.464 93.5235 25.464C95.9035 25.464 96.8555 26.808 96.8555 28.348V28.628C95.6235 28.152 94.3355 27.9 93.1595 27.9C89.7995 27.9 87.1395 29.86 87.1395 32.716C87.1395 35.488 89.5195 37.336 92.5995 37.336C94.1675 37.336 95.8195 36.72 96.8555 35.544V37H100.804V28.348C100.804 24.568 98.2275 22.188 94.4475 22.188ZM93.5235 34.508C92.1235 34.508 91.0875 33.78 91.0875 32.604C91.0875 31.428 92.2635 30.56 93.7475 30.56C94.8675 30.56 95.9315 30.756 96.8555 31.092V32.436C96.5755 33.78 95.0915 34.508 93.5235 34.508ZM118.333 22.524H113.629L108.253 28.768V17.428H104.165V37H108.253V33.444L109.989 31.568L113.573 37H118.277L112.705 28.936L118.333 22.524ZM127.077 33.724C125.369 33.724 124.109 32.66 123.633 31.092H134.077C134.077 25.632 131.417 22.188 126.881 22.188C122.653 22.188 119.433 25.352 119.433 29.72C119.433 34.172 122.793 37.336 127.105 37.336C129.233 37.336 131.725 36.44 133.013 35.096L130.409 32.436C129.625 33.192 128.225 33.724 127.077 33.724ZM127.049 25.8C128.701 25.8 129.765 26.724 130.157 28.152H123.689C124.221 26.696 125.509 25.8 127.049 25.8ZM147.651 17.428V24.596C146.503 23.084 144.823 22.188 142.779 22.188C138.915 22.188 136.115 25.324 136.115 29.748C136.115 34.2 138.915 37.336 142.779 37.336C144.823 37.336 146.503 36.44 147.651 34.928V37H151.739V17.428H147.651ZM143.955 33.892C141.687 33.892 140.091 32.184 140.091 29.748C140.091 27.34 141.687 25.632 143.955 25.632C146.111 25.632 147.651 27.34 147.651 29.748C147.651 32.184 146.111 33.892 143.955 33.892ZM162.159 33.724C160.451 33.724 159.191 32.66 158.715 31.092H169.159C169.159 25.632 166.499 22.188 161.963 22.188C157.735 22.188 154.515 25.352 154.515 29.72C154.515 34.172 157.875 37.336 162.187 37.336C164.315 37.336 166.807 36.44 168.095 35.096L165.491 32.436C164.707 33.192 163.307 33.724 162.159 33.724ZM162.131 25.8C163.783 25.8 164.847 26.724 165.239 28.152H158.771C159.303 26.696 160.591 25.8 162.131 25.8Z" fill="#44D62D"/>
</g>
<defs>
<clipPath id="clip0">
<rect width="170" height="50" fill="white"/>
</clipPath>
</defs>
</svg>
